<svg xmlns="http://www.w3.org/2000/svg" viewBox="0 0 1200 682.37"><defs><style>.cls-1{fill:#fff;}</style></defs><g id="Capa_2" data-name="Capa 2"><path class="cls-1" d="M51.21,938.41q-35.4-8.13-46.47-35t3.69-66.75q12.53-33.2,42-71.91t70.07-76.34a634.23,634.23,0,0,1,76-60.11q42.77-29.13,101-60.85,23.59-13.27,29.14-16.59c3.69-2.22,3.32-3.07-1.11-2.59a207.17,207.17,0,0,1-22.86,2.22q-14,.74-28.4,1.1t-27.66,0a145.6,145.6,0,0,1-21.39-1.84Q198,546,185.07,538.65a33.84,33.84,0,0,1-16.59-22.13q-5.17-17,4.06-35.77t35-43.15a514.4,514.4,0,0,1,52-43.89q28.38-21,68.22-45.36,68.59-42,121-64.53t87-24.71q22.13-1.47,32.08,4.42t10,21.39q0,8.85-9.22,25.08a364.55,364.55,0,0,1-24,36.14,527.41,527.41,0,0,1-34.3,41.31,556,556,0,0,1-40.2,39.82Q448,446.47,437.69,452T420,453.83a9.27,9.27,0,0,1-5.16-8.49,66.39,66.39,0,0,1,1.47-12.9q.74-2.94,6.64-11.07T436.58,404q7.76-9.21,15.49-18.07A136.59,136.59,0,0,1,465,372.69q8.85-8.1,13.28-9.58t9.59,2.21a22.89,22.89,0,0,0,4.42,1.84q1.47.39,3.69-2.21t6.64-8.11Q507,351.3,515.14,341q14.75-19.17,24-32.08t10.69-19.55l1.48-5.9L538,284.92q-27.3,3.7-68.59,20.66a824.26,824.26,0,0,0-85.93,41.67,963.13,963.13,0,0,0-86.66,54.21Q254.78,431,226,458.25q-22.87,21.4-29.87,36.51t2.58,21q7.36,4.43,23.6,6.64a260.82,260.82,0,0,0,39.09,1.84q22.86-.36,50.53-3t57.16-7q20.64-2.94,32.08-4.43a101.28,101.28,0,0,1,17.7-1.1c4.18.25,7,1.1,8.49,2.58a16.88,16.88,0,0,1,3.68,6.63,10,10,0,0,1,.37,7q-1.11,3.32-6.64,7.75t-17,10.32Q396.38,549,378,558.56q-80.4,37.62-135.71,72.65t-97.36,72.65A668.24,668.24,0,0,0,97.31,751.8,449.12,449.12,0,0,0,60.06,799q-15.5,22.85-24,42.78t-8.48,34.66q0,11.79,2.58,19.55t11.43,10q37.62,8.87,88.14-5.53T235.6,858.75q55.32-27.3,111.37-62.32t106.21-66.75q28.77-18.43,45.73-28.77t26.18-14.38c6.14-2.7,10.33-3.69,12.54-2.95s4.06,2.83,5.53,6.27c1.48,4.42,1,8.36-1.47,11.8q-1.49,1.49-19.18,14.38T479,746.64q-72.28,50.15-148.25,96.62a880,880,0,0,1-162.26,77.45q-37.62,14-67.86,18.43T51.21,938.41ZM452.44,417q13.28-14,20.65-21.76c4.91-5.16,7.38-8,7.38-8.48H479c-1,1-3.31,3.2-7,6.64s-7.75,7.37-12.17,11.8-8.74,9-12.91,13.64A151.47,151.47,0,0,0,437,431q-8.85,8.85-2.58,3.69T452.44,417Z" transform="translate(0 -258.82)"/><path class="cls-1" d="M538,703.12a332.9,332.9,0,0,0-19.91,36.51q-9.59,20.29-12.54,31.35-5.9,27.28,24.34,25.08,17.7-1.48,45.36-13.65t65.27-35.77q15.5-9.57,33.93-22.13t28.76-20.65q16.21-11.79,24.71-18.07t12.54-9.22c2.7-2,4.67-3,5.9-3a21,21,0,0,1,4.8.74,11,11,0,0,1,7.37,7,13.43,13.43,0,0,1-.74,11.43q-1.49,3-12.54,12.17t-26.92,20.65q-15.87,11.45-33.92,24T651.58,771Q628,785.72,609.91,795.69a364.43,364.43,0,0,1-32.82,16.22,148.71,148.71,0,0,1-26.92,8.85,115.41,115.41,0,0,1-24,2.59,94.27,94.27,0,0,1-14-1.11c-4.9-.74-8.35-1.6-10.32-2.58q-73.74-31,84.08-230.86,31-39.09,65.28-77.44t66.38-70.81q32.08-32.44,59.74-56.05t45.36-33.2q16.95-10.32,28-8.85,14.74,1.5,14.75,17.71,0,6.63-10,24.7A376.84,376.84,0,0,1,833,420.64q-9.6,13.28-27.29,35T767.38,501q-20.65,23.61-40.93,45.73t-35,36.88a547.89,547.89,0,0,1-60.48,53.47,402.83,402.83,0,0,1-67.12,41.67q-11.05,5.93-15.12,9.59T538,703.12ZM704.69,494.39q-19.92,21.41-43.15,47.94t-43.15,50.53q-19.9,24-32.08,40.19t-10,16.23c.49,0,2-1.47,4.43-4.42s6.64-6.39,12.54-10.33a437.66,437.66,0,0,0,35-28.4q19.53-17.31,42-39.83t47.21-49q24.71-26.55,49.78-56.06,10.32-12.52,21-25.81T808,410.31q8.85-11.79,14.38-19.55c3.69-5.16,5.53-8.22,5.53-9.21,0-.49-.49-.74-1.47-.74q-3,.74-16.23,11.43t-31,27.29q-17.7,16.59-37.61,36.51T704.69,494.39Z" transform="translate(0 -258.82)"/><path class="cls-1" d="M734.92,761.39q-24.33-8.1-23.23-28.4t26.92-55.68q11.07-15.49,20.65-24.71T774,643.38a18.64,18.64,0,0,1,11.81,4.06c3.43,2.71,5.16,5.78,5.16,9.22q0,5.91-5.16,14c-3.45,5.42-6.64,8.11-9.59,8.11-1.48,0-3.69,1.61-6.64,4.8s-6.27,7.13-10,11.8-7.26,9.59-10.69,14.75A84.87,84.87,0,0,0,741.56,723q-9.59,21.4,17.33,13.27t89.62-45q19.17-11.79,28.4-14.38t13.64,1.84a10,10,0,0,1,3,8.86,13.88,13.88,0,0,1-5.16,8.85q-3.71,3-14.75,10t-24.71,14.75q-13.67,7.75-26.92,15.12a196,196,0,0,1-20.66,10.33Q755.57,768,734.92,761.39Zm95.15-155.63q-14.76,18.45-24.34,8.86-8.13-8.85,3.69-24.34,6.63-8.85,10.69-11.8a15.32,15.32,0,0,1,9.22-3q11.79,0,11.8,14c0,1-1.1,3.08-3.32,6.27A119.52,119.52,0,0,1,830.07,605.76Z" transform="translate(0 -258.82)"/><path class="cls-1" d="M879.49,718.61c.48,0,.11-1.1-1.11-3.32a52.06,52.06,0,0,0-4.8-7,52.33,52.33,0,0,1-8.48-19.18q-2.57-11.07.37-19.18a48.79,48.79,0,0,1,10.7-17.33,85.11,85.11,0,0,1,17-14.38,111,111,0,0,1,18.44-9.59q9.21-3.69,15.12-3.69,12.54,0,15.49,9.59t-6.64,22.13a40.94,40.94,0,0,1-6.64,6.63q-5.16,4.43-11.06,9.22c-3.94,3.21-8.11,6.27-12.54,9.22a74.73,74.73,0,0,1-11.8,6.64.66.66,0,0,0-.74.74q0,2.22,8.12,10.33l8.11,8.85,25.81-8.85q11.07-3.69,26.92-8.49t31-9.22q15.1-4.43,27.29-7.37t15.12-3q5.9,0,9.59,5.9t2.21,10.33a9,9,0,0,1-3,4.05,30.6,30.6,0,0,1-7.74,4.06q-5.54,2.21-15.12,5.16T996,708.29q-14.76,3.69-30.61,8.48t-24,7.74l-19.91,7.38q2.21,23.61-7,38.72a108.6,108.6,0,0,1-24.71,27.66,124.55,124.55,0,0,1-22.49,14,205,205,0,0,1-24.34,10A93.84,93.84,0,0,1,819.37,827q-11.42.74-19.54-2.95-7.37-3-12.54-11.06t-5.16-16.23q0-14,19.17-31.34t53.85-34.3q9.58-5.14,17-8.48C877,720.46,879.49,719.11,879.49,718.61Zm14,25.82q-3.71-.73-19.55,6.64a332.55,332.55,0,0,0-30.6,16.22,165.56,165.56,0,0,0-25.45,18.44q-10.68,9.59-9.22,12.54,1.49,2.21,14.75.74a77.89,77.89,0,0,0,24.34-6.64Q864,785,873.58,777.25a63.79,63.79,0,0,0,15.49-18.07,100.42,100.42,0,0,0,4.43-10C894.48,746.53,894.48,744.92,893.5,744.43Zm5.16-79.66A51.79,51.79,0,0,0,909,657.39q5.89-5.14,9.59-8.85c1-1,1.34-1.71,1.1-2.21s-.86-.24-1.84.74A63.45,63.45,0,0,0,906,657.39Z" transform="translate(0 -258.82)"/><path class="cls-1" d="M1032.15,718.61c.49,0,.12-1.1-1.1-3.32a53,53,0,0,0-4.8-7,52.33,52.33,0,0,1-8.48-19.18q-2.58-11.07.37-19.18a48.89,48.89,0,0,1,10.69-17.33,85.16,85.16,0,0,1,17-14.38,110.57,110.57,0,0,1,18.44-9.59q9.21-3.69,15.12-3.69,12.53,0,15.49,9.59t-6.64,22.13a40.94,40.94,0,0,1-6.64,6.63q-5.17,4.43-11.06,9.22c-3.94,3.21-8.12,6.27-12.54,9.22a75.18,75.18,0,0,1-11.8,6.64.66.66,0,0,0-.74.74q0,2.22,8.11,10.33l8.12,8.85,25.81-8.85q11.07-3.69,26.92-8.49t31-9.22q15.11-4.43,27.29-7.37t15.12-3q5.9,0,9.59,5.9t2.21,10.33a9,9,0,0,1-2.95,4.05,30.78,30.78,0,0,1-7.74,4.06q-5.54,2.21-15.12,5.16t-25.08,7.38q-14.76,3.69-30.61,8.48t-24,7.74l-19.92,7.38q2.22,23.61-7,38.72a108.78,108.78,0,0,1-24.71,27.66,124.28,124.28,0,0,1-22.5,14,203.68,203.68,0,0,1-24.34,10A93.68,93.68,0,0,1,972,827q-11.43.74-19.54-2.95-7.37-3-12.54-11.06t-5.17-16.23q0-14,19.18-31.34t53.84-34.3q9.6-5.14,17-8.48T1032.15,718.61Zm14,25.82q-3.7-.73-19.55,6.64A331.43,331.43,0,0,0,996,767.29a165.45,165.45,0,0,0-25.44,18.44q-10.68,9.59-9.22,12.54,1.49,2.21,14.75.74a77.89,77.89,0,0,0,24.34-6.64q16.23-7.38,25.81-15.12a63.79,63.79,0,0,0,15.49-18.07,100.42,100.42,0,0,0,4.43-10C1047.15,746.53,1047.15,744.92,1046.17,744.43Zm5.16-79.66a52.08,52.08,0,0,0,10.33-7.38q5.89-5.14,9.58-8.85c1-1,1.35-1.71,1.11-2.21s-.86-.24-1.84.74a63.45,63.45,0,0,0-11.8,10.32Z" transform="translate(0 -258.82)"/></g></svg>